<svg width="32" height="32" viewBox="0 0 32 32" fill="none" xmlns="http://www.w3.org/2000/svg">
<g clip-path="url(#clip0_15236_2286)">
<path d="M15.6165 18.6667L7.6898 17.744C7.22047 17.6942 6.91958 17.4453 6.78714 16.9973C6.65469 16.5493 6.76269 16.1707 7.11114 15.8613L20.1551 4.15467C20.2147 4.09423 20.2836 4.04934 20.3618 4.02C20.44 3.98978 20.5529 3.97467 20.7005 3.97467C20.9405 3.97467 21.1298 4.07823 21.2685 4.28534C21.4071 4.49245 21.4085 4.71023 21.2725 4.93867L16.3085 13.3587L24.2858 14.2813C24.7551 14.3311 25.0605 14.5756 25.2018 15.0147C25.3431 15.4538 25.2391 15.8284 24.8898 16.1387L11.8458 27.872C11.7862 27.9316 11.7174 27.972 11.6391 27.9933C11.5609 28.0147 11.448 28.0253 11.3005 28.0253C11.0605 28.0253 10.8796 27.9222 10.7578 27.716C10.636 27.5098 10.6347 27.3004 10.7538 27.088L15.6165 18.6667ZM14.0165 24.0227L23.5885 15.5307L14.1591 14.4747L18.0285 7.93334L8.41247 16.452L17.8085 17.5773L14.0165 24.0227Z" fill="black"/>
<path d="M15.6165 18.6667L7.6898 17.744C7.22047 17.6942 6.91958 17.4453 6.78714 16.9973C6.65469 16.5493 6.76269 16.1707 7.11114 15.8613L20.1551 4.15467C20.2147 4.09423 20.2836 4.04934 20.3618 4.02C20.44 3.98978 20.5529 3.97467 20.7005 3.97467C20.9405 3.97467 21.1298 4.07823 21.2685 4.28534C21.4071 4.49245 21.4085 4.71023 21.2725 4.93867L16.3085 13.3587L24.2858 14.2813C24.7551 14.3311 25.0605 14.5756 25.2018 15.0147C25.3431 15.4538 25.2391 15.8284 24.8898 16.1387L11.8458 27.872C11.7862 27.9316 11.7174 27.972 11.6391 27.9933C11.5609 28.0147 11.448 28.0253 11.3005 28.0253C11.0605 28.0253 10.8796 27.9222 10.7578 27.716C10.636 27.5098 10.6347 27.3004 10.7538 27.088L15.6165 18.6667ZM14.0165 24.0227L23.5885 15.5307L14.1591 14.4747L18.0285 7.93334L8.41247 16.452L17.8085 17.5773L14.0165 24.0227Z" fill="#283653"/>
</g>
<defs>
<clipPath id="clip0_15236_2286">
<rect width="32" height="32" fill="white"/>
</clipPath>
</defs>
</svg>
