<svg width="32" height="32" viewBox="0 0 32 32" fill="none" xmlns="http://www.w3.org/2000/svg">
<g clip-path="url(#clip0_15236_2323)">
<path d="M8 3.99996C8 3.64634 8.14048 3.3072 8.39052 3.05715C8.64057 2.8071 8.97971 2.66663 9.33333 2.66663H22.6667C23.0203 2.66663 23.3594 2.8071 23.6095 3.05715C23.8595 3.3072 24 3.64634 24 3.99996V20C24 20.3536 23.8595 20.6927 23.6095 20.9428C23.3594 21.1928 23.0203 21.3333 22.6667 21.3333H9.33333C8.97971 21.3333 8.64057 21.1928 8.39052 20.9428C8.14048 20.6927 8 20.3536 8 20V3.99996Z" stroke="black" stroke-width="1.25" stroke-linejoin="round"/>
<path d="M11.9993 18.6667C12.7357 18.6667 13.3327 18.0697 13.3327 17.3333C13.3327 16.597 12.7357 16 11.9993 16C11.263 16 10.666 16.597 10.666 17.3333C10.666 18.0697 11.263 18.6667 11.9993 18.6667Z" fill="black"/>
<path d="M19.9993 18.6667C20.7357 18.6667 21.3327 18.0697 21.3327 17.3333C21.3327 16.597 20.7357 16 19.9993 16C19.263 16 18.666 16.597 18.666 17.3333C18.666 18.0697 19.263 18.6667 19.9993 18.6667Z" fill="black"/>
<path d="M8 13.3333H24M14 25.3333H18M12 29.3333H20" stroke="black" stroke-width="1.25" stroke-linecap="round" stroke-linejoin="round"/>
<path d="M11.333 21.3333L7.33301 29.3333M20.6663 21.3333L24.6663 29.3333" stroke="black" stroke-width="1.25" stroke-linecap="round"/>
<path d="M24 10V16.6667M8 10V16.6667" stroke="black" stroke-width="1.25" stroke-linecap="round" stroke-linejoin="round"/>
</g>
<defs>
<clipPath id="clip0_15236_2323">
<rect width="32" height="32" fill="white"/>
</clipPath>
</defs>
</svg>
