<svg width="32" height="32" viewBox="0 0 32 32" fill="none" xmlns="http://www.w3.org/2000/svg">
<g clip-path="url(#clip0_15236_2313)">
<path d="M23.0039 26.556C25.4762 24.9182 27.2954 22.4648 28.1445 19.6234C28.9937 16.782 28.819 13.7327 27.6508 11.0069C26.4827 8.28111 24.3951 6.05158 21.752 4.70683C19.1088 3.36209 16.0776 2.98739 13.1866 3.64802M23.0052 22.6667V26.5547L27.3332 26.556M8.96255 5.46668C6.49743 7.11016 4.6864 9.56577 3.84447 12.4064C3.00254 15.247 3.183 18.2928 4.35444 21.0142C5.52589 23.7355 7.6142 25.9601 10.2561 27.301C12.8981 28.6419 15.9265 29.0143 18.8146 28.3534M8.96255 5.46668V9.33335M8.96255 5.46668H4.66656" stroke="black" stroke-width="1.25" stroke-linecap="round" stroke-linejoin="round"/>
<path d="M15.9997 21.3334C17.2374 21.3334 18.4243 20.8417 19.2995 19.9665C20.1747 19.0914 20.6663 17.9044 20.6663 16.6667C20.6663 13.3334 15.9997 9.33337 15.9997 9.33337C15.9997 9.33337 11.333 13.3334 11.333 16.6667C11.333 17.9044 11.8247 19.0914 12.6998 19.9665C13.575 20.8417 14.762 21.3334 15.9997 21.3334Z" stroke="black" stroke-width="1.25" stroke-linecap="round" stroke-linejoin="round"/>
</g>
<defs>
<clipPath id="clip0_15236_2313">
<rect width="32" height="32" fill="white"/>
</clipPath>
</defs>
</svg>
