<svg width="24" height="24" viewBox="0 0 24 24" fill="none" xmlns="http://www.w3.org/2000/svg">
<rect width="24" height="24" fill="white"/>
<g clip-path="url(#clip0_15125_4031)">
<path d="M11.23 14.154V12.616H12.77V14.154H11.23ZM7.23 14.154V12.616H8.77V14.154H7.23ZM15.23 14.154V12.616H16.77V14.154H15.23ZM11.23 18V16.462H12.77V18H11.23ZM7.23 18V16.462H8.77V18H7.23ZM15.23 18V16.462H16.77V18H15.23ZM4 21V5.00002H7.385V2.77002H8.462V5.00002H15.616V2.77002H16.616V5.00002H20V21H4ZM5 20H19V10.616H5V20ZM5 9.61502H19V6.00002H5V9.61502Z" fill="#00A146"/>
</g>
<defs>
<clipPath id="clip0_15125_4031">
<rect width="24" height="24" fill="white"/>
</clipPath>
</defs>
</svg>
