<svg width="24" height="24" viewBox="0 0 24 24" fill="none" xmlns="http://www.w3.org/2000/svg">
<rect width="24" height="24" fill="white"/>
<g clip-path="url(#clip0_15269_3104)">
<path d="M11.23 14.154V12.616H12.77V14.154H11.23ZM7.23 14.154V12.616H8.77V14.154H7.23ZM15.23 14.154V12.616H16.77V14.154H15.23ZM11.23 18V16.462H12.77V18H11.23ZM7.23 18V16.462H8.77V18H7.23ZM15.23 18V16.462H16.77V18H15.23ZM4 21V4.99999H7.385V2.76999H8.462V4.99999H15.616V2.76999H16.616V4.99999H20V21H4ZM5 20H19V10.616H5V20ZM5 9.61499H19V5.99999H5V9.61499Z" fill="#B2BCC0"/>
</g>
<defs>
<clipPath id="clip0_15269_3104">
<rect width="24" height="24" fill="white"/>
</clipPath>
</defs>
</svg>
