<svg width="32" height="32" viewBox="0 0 32 32" fill="none" xmlns="http://www.w3.org/2000/svg">
<g clip-path="url(#clip0_15269_2976)">
<path d="M25.9798 26.8721L17.6305 18.5227C16.9638 19.0907 16.1971 19.5303 15.3305 19.8414C14.4638 20.1525 13.5927 20.3081 12.7171 20.3081C10.582 20.3081 8.77493 19.5689 7.29582 18.0907C5.8167 16.6125 5.07715 14.8058 5.07715 12.6707C5.07715 10.5356 5.81581 8.72806 7.29315 7.24806C8.77048 5.76806 10.5767 5.02717 12.7118 5.02539C14.8469 5.02362 16.6549 5.76317 18.1358 7.24406C19.6167 8.72495 20.3571 10.5325 20.3571 12.6667C20.3571 13.5929 20.1931 14.4894 19.8651 15.3561C19.5371 16.2227 19.106 16.9641 18.5718 17.5801L26.9211 25.9281L25.9798 26.8721ZM12.7185 18.9734C14.4874 18.9734 15.9807 18.3645 17.1985 17.1467C18.4163 15.9289 19.0251 14.4352 19.0251 12.6654C19.0251 10.8956 18.4163 9.40228 17.1985 8.18539C15.9807 6.9685 14.4874 6.35962 12.7185 6.35873C10.9496 6.35784 9.45581 6.96673 8.23715 8.18539C7.01848 9.40406 6.40959 10.8974 6.41048 12.6654C6.41137 14.4334 7.02026 15.9267 8.23715 17.1454C9.45404 18.3641 10.9474 18.973 12.7171 18.9721" fill="#283653" fill-opacity="0.6"/>
</g>
<defs>
<clipPath id="clip0_15269_2976">
<rect width="32" height="32" fill="white"/>
</clipPath>
</defs>
</svg>
