<svg width="321" height="54" viewBox="0 0 321 54" fill="none" xmlns="http://www.w3.org/2000/svg">
<g style="mix-blend-mode:luminosity" clip-path="url(#clip0_15022_20142)">
<path d="M60.5783 0H59.491V53.7283H60.5783V0Z" fill="#DF0333"/>
<path d="M94.8269 31.115C93.1378 31.4644 91.099 31.6974 89.3904 31.6974C83.5658 31.6974 79.7408 29.0769 79.7408 23.118V14.4802H85.1385V22.5355C85.1385 25.6024 86.711 26.9612 89.9341 26.9612C91.6621 26.9612 93.293 26.7477 94.8073 26.3788V14.4802H100.205V39.248H94.8073V31.115H94.8269Z" fill="#DF0333"/>
<path d="M201.244 39.2479V22.7102L188.798 39.2479H184.061V14.4801H189.419V30.4937L201.476 14.4801H206.641V39.2479H201.244Z" fill="#DF0333"/>
<path d="M236.037 26.9223V26.8448C236.037 19.8375 241.746 14.0532 249.608 14.0532C257.473 14.0532 263.102 19.7405 263.102 26.7865V26.8641C263.102 33.8713 257.394 39.6557 249.531 39.6557C241.669 39.6557 236.037 33.9683 236.037 26.9223ZM257.454 26.9223V26.8448C257.454 22.4968 254.153 18.8476 249.531 18.8476C244.909 18.8476 241.669 22.4191 241.669 26.7671V26.8448C241.669 31.1927 244.969 34.8418 249.589 34.8418C254.23 34.8613 257.454 31.2898 257.454 26.9223Z" fill="#DF0333"/>
<path d="M293.914 26.9229V26.8452C293.914 19.8381 299.623 14.0537 307.487 14.0537C315.35 14.0537 320.981 19.7409 320.981 26.7869V26.8647C320.981 33.8717 315.272 39.6561 307.41 39.6561C299.565 39.6561 293.914 33.9689 293.914 26.9229ZM315.35 26.9229V26.8452C315.35 22.4972 312.049 18.8481 307.429 18.8481C302.807 18.8481 299.565 22.4197 299.565 26.7677V26.8452C299.565 31.1932 302.865 34.8424 307.487 34.8424C312.126 34.8617 315.35 31.2902 315.35 26.9229Z" fill="#DF0333"/>
<path d="M111.68 34.5895V24.5154C111.738 27.0582 113.796 29.0963 116.339 29.0963H124.028V24.4379H111.68V19.1387H125.717V14.4802H106.36V39.248H125.717V34.5895H111.68Z" fill="#DF0333"/>
<path d="M226.91 26.5152C229.648 25.4865 231.339 23.9336 231.339 20.7698V20.7309C231.339 16.6741 227.823 14.0537 221.805 14.0537C217.242 14.0537 214.097 15.6842 211.282 18.1105L214.544 21.6433C216.64 19.9351 218.99 18.7122 221.689 18.7122C224.29 18.7122 225.862 19.7409 225.862 21.5073V21.5463C225.862 23.3514 224.309 24.5741 221.649 24.5741H215.223C215.223 26.9812 217.184 28.9221 219.591 28.9221H221.513C224.64 28.8833 226.562 29.951 226.562 31.8531V31.8919C226.562 33.93 224.425 34.9977 221.552 34.9977C218.562 34.9977 216.194 33.8135 214.02 32.1443L210.835 35.8906C213.359 38.0645 216.834 39.6756 221.436 39.6756C228.173 39.7144 232.056 36.5116 232.056 32.3578V32.3191C232.037 28.8445 229.94 27.2722 226.91 26.5152Z" fill="#DF0333"/>
<path d="M285.237 26.3205C287.063 25.3306 288.635 23.7777 288.635 20.9438V20.8661C288.635 19.158 288.072 17.7993 286.906 16.6541C285.431 15.2565 283.12 14.4801 280.208 14.4801H268.462V39.2479H280.519C286.266 39.2479 290.053 36.9768 290.053 32.4349V32.3766C290.072 29.0381 288.169 27.3687 285.237 26.3205ZM279.452 19.061C281.898 19.061 283.277 20.0509 283.277 21.7203V21.7978C283.277 23.7389 281.664 24.5929 279.102 24.5929H273.705V19.061H279.452ZM284.713 31.8331C284.713 33.7353 283.139 34.667 280.539 34.667H273.705V24.6901C273.763 27.0582 275.685 28.9409 278.073 28.9409H280.345C283.354 28.9409 284.733 29.989 284.733 31.7749V31.8331H284.713Z" fill="#DF0333"/>
<path d="M143.483 14.4802H131.212V39.248H136.571V31.6974H143.463C148.22 31.6974 152.064 27.8347 152.064 23.0985C152.084 18.3235 148.22 14.4802 143.483 14.4802ZM143.502 27.0388H136.571V19.197H143.463C143.483 19.197 143.502 19.197 143.521 19.197C145.677 19.197 147.443 20.9439 147.443 23.118C147.424 25.2919 145.677 27.0388 143.502 27.0388Z" fill="#DF0333"/>
<path d="M156.471 14.4801H161.83V25.6411L172.489 14.4801H179.129L168.625 25.0201L179.576 39.2479H173.091L164.994 28.5916L161.83 31.7554V39.2479H156.471V14.4801Z" fill="#DF0333"/>
<path d="M79.6252 50.6805C79.6252 48.8172 81.0426 47.3225 83.0814 47.3225C84.3238 47.3225 85.081 47.7302 85.7024 48.3124L84.8094 49.3219C84.2851 48.8559 83.7609 48.5842 83.0814 48.5842C81.9358 48.5842 81.1008 49.5159 81.1008 50.6418V50.6613C81.1008 51.787 81.9163 52.7381 83.0814 52.7381C83.858 52.7381 84.3238 52.4274 84.8676 51.9617L85.7606 52.8351C85.081 53.5339 84.3238 53.9803 83.0425 53.9803C81.0815 53.9998 79.6252 52.5246 79.6252 50.6805Z" fill="#DF0333"/>
<path d="M91.7203 48.7786L90.5555 49.0504L90.2642 47.9439L92.1475 47.381H93.1182V53.8835H91.7203V48.7786Z" fill="#DF0333"/>
<path d="M98.7294 51.1662C98.3993 51.4767 97.9334 51.6707 97.3315 51.6707C95.8947 51.6707 94.9628 50.8943 94.9628 49.5938V49.5744C94.9628 48.2739 95.9918 47.3228 97.4867 47.3228C98.3799 47.3228 98.8846 47.5364 99.3895 48.0217C99.8749 48.4874 100.166 49.1863 100.166 50.4673C100.166 52.5636 99.1372 53.9806 97.2732 53.9806C96.3025 53.9806 95.6617 53.6701 95.0986 53.2236L95.8365 52.1754C96.3218 52.5636 96.749 52.7384 97.2926 52.7384C98.3799 52.7579 98.6905 51.7679 98.7294 51.1662ZM98.7489 49.5356C98.7489 48.9339 98.3022 48.4874 97.5451 48.4874C96.7879 48.4874 96.3801 48.9144 96.3801 49.5163V49.5356C96.3801 50.1373 96.8461 50.545 97.5838 50.545C98.3022 50.545 98.7489 50.0985 98.7489 49.5356Z" fill="#DF0333"/>
<path d="M104.864 48.6039H101.699V47.4392H106.456V48.4679L103.466 53.8835H101.874L104.864 48.6039Z" fill="#DF0333"/>
<path d="M107.078 52.4861L106.845 51.5155L110.515 47.381H111.699V51.3797H112.612V52.4861H111.699V53.8835H110.359V52.4861H107.078ZM110.34 51.3797V49.2638L108.476 51.3797H110.34Z" fill="#DF0333"/>
<path d="M30.2113 24.5542C28.2892 23.3897 25.4157 23.2732 21.5519 27.9899C19.7075 30.2416 17.9212 33.3861 15.7855 35.9482C13.6498 38.5298 11.1451 40.5291 7.86387 40.5291C3.68949 40.5291 1.68967 37.3651 0.777136 33.4056C0.31116 31.4257 0.117002 29.2516 0.0393393 27.194C-0.0383235 25.1366 0.0199236 23.1762 0.0781708 21.6426C0.0975865 20.7887 0.330574 19.4687 0.641227 18.6341C2.33039 14.1697 7.20373 11.6851 11.5529 13.0827C14.9118 14.1697 17.0863 17.2365 16.931 20.6334C16.8534 22.3608 16.7368 24.1662 16.6592 25.6606C16.6009 27.1553 16.5621 28.3587 16.698 28.8439C16.8728 29.5621 17.5911 29.5428 18.0183 29.1546C18.2124 28.9604 18.7561 28.3587 19.3967 27.6405C20.018 26.9223 20.7753 26.0878 21.3773 25.4084C22.6003 24.0884 25.4157 21.4099 30.5025 21.4099C36.1137 21.4099 40.5017 25.6996 40.3076 30.9792C40.1134 36.2782 36.6768 40.5486 29.8037 40.5486C24.076 40.5486 20.9501 36.9576 22.5228 32.3962C23.94 28.2422 29.6871 27.0388 32.1141 27.8152C32.153 27.757 32.1141 25.7189 30.2113 24.5542ZM25.804 17.7412C21.9208 17.7412 18.8726 16.1301 18.9308 14.1503C19.0085 12.1898 22.1732 10.5593 26.0563 10.5593C29.9394 10.5593 32.9878 12.1704 32.9296 14.1503C32.8518 16.1301 29.6871 17.7412 25.804 17.7412Z" fill="#DF0333"/>
</g>
<defs>
<clipPath id="clip0_15022_20142">
<rect width="321" height="54" fill="white"/>
</clipPath>
</defs>
</svg>
