<svg width="125" height="86" viewBox="0 0 125 86" fill="none" xmlns="http://www.w3.org/2000/svg">
<g clip-path="url(#clip0_15102_3963)">
<path fill-rule="evenodd" clip-rule="evenodd" d="M4.83997 51.1001C4.87997 22.8201 30.72 -0.0598823 62.54 0.000117738C94.37 0.0501177 120.14 23.0201 120.08 51.3001L120.04 54.1401L120.09 62.6901L120.14 67.9901C120.14 70.6301 119.32 73.0501 117.74 75.0101C116.38 76.6901 113.2 79.5101 107.14 79.5101H106.57C105.09 79.5101 103.87 79.4901 102.45 79.4701H102.19C100.24 79.4401 97.79 79.4001 93.7 79.3901H90.82C83.8637 79.3804 76.9224 80.0333 70.09 81.3401L70.01 81.3501C69.11 81.5501 66.7 82.1201 65.29 82.5801L62.79 83.3801L60.27 82.7001C57.93 82.0601 55.57 81.4601 55.15 81.3801C53 80.9301 45.22 79.4901 34.67 79.4801H34.31C28.37 79.4901 25.33 79.5501 22.9 79.5901H22.65C21.08 79.6201 19.74 79.6501 18.01 79.6501H17.97C10.32 79.6501 4.97997 74.9501 4.94997 68.2501L4.84997 54.3701L4.83997 51.1001Z" fill="#001689"/>
<path fill-rule="evenodd" clip-rule="evenodd" d="M4.82996 56.4002C4.89996 27.6202 30.78 7.00019 62.58 7.06019C94.37 7.12019 120.19 27.8202 120.14 56.6402V57.1002L4.83996 57.3302V56.4202L4.82996 56.4002Z" fill="#FEFEFE"/>
<path fill-rule="evenodd" clip-rule="evenodd" d="M62.46 8.33007C41.22 8.33007 22.68 17.6701 13.06 32.5501C17.98 44.7001 38.72 53.8501 63.56 53.8901C87.06 53.9301 106.9 45.8201 113.2 34.6901C104 18.6001 84.78 8.37007 62.57 8.32007H62.47" fill="url(#paint0_radial_15102_3963)"/>
<path fill-rule="evenodd" clip-rule="evenodd" d="M88.27 29.3601C85.77 27.6601 80.1 23.5001 77.16 22.6801C72.77 21.4401 67.86 25.2501 65.18 25.7801C62.51 26.2801 60.56 23.1001 58.08 23.0501C56.08 23.0101 46.4 26.8901 43.68 27.9101L49.63 30.4501C50.45 30.9801 72.57 35.8001 89.59 30.9501L88.27 29.3501V29.3601Z" fill="#FEFEFE"/>
<path fill-rule="evenodd" clip-rule="evenodd" d="M43.68 27.9101C46.4 26.8901 56.08 23.0101 58.08 23.0501C59.16 23.0601 60.14 23.6801 61.12 24.3401C59.72 23.9701 57.26 22.4401 56.16 25.0201C55.6 26.3401 54.66 29.1901 53.5 29.6001C50.6 31.1001 43.68 27.9101 43.68 27.9101Z" fill="#3EBFEF"/>
<path fill-rule="evenodd" clip-rule="evenodd" d="M69.2399 26.1001C71.5299 24.8501 72.1999 23.8201 72.5599 22.8601C69.5899 23.6701 66.3399 25.7501 64.7499 25.8201C64.1999 25.8401 63.8699 25.7401 63.4599 25.6301C63.3399 26.2301 62.7599 27.4101 62.4099 28.1101C61.7299 29.5101 60.2099 30.1101 59.1499 30.9401L59.1299 30.9701C60.9799 31.6701 62.5399 33.5701 64.4399 33.2401L65.3099 32.8401C65.6599 31.6201 66.5799 27.5401 69.2399 26.0901" fill="#EBF6FC"/>
<path fill-rule="evenodd" clip-rule="evenodd" d="M73.17 22.7002C70.99 23.2602 68.07 24.6302 66.39 25.3802C65.71 25.6902 66.56 28.0202 66.64 29.0502C67.2505 27.8888 68.2132 26.9506 69.39 26.3702C71.4 25.2802 72.46 24.6002 72.76 23.7502L73.1 22.8602L73.17 22.6902V22.7002Z" fill="#93D5F5"/>
<mask id="mask0_15102_3963" style="mask-type:luminance" maskUnits="userSpaceOnUse" x="6" y="8" width="113" height="49">
<path d="M6.03997 56.0501L118.94 55.8101C118.5 28.0701 93.4 8.39008 62.57 8.33008H62.47C31.51 8.33008 6.29997 28.1601 6.02997 56.0501H6.03997Z" fill="white"/>
</mask>
<g mask="url(#mask0_15102_3963)">
<path fill-rule="evenodd" clip-rule="evenodd" d="M1.73994 26.8102C1.73994 26.8102 7.08994 26.5202 31.8799 22.3502C43.2399 20.4402 59.3199 33.5302 69.0399 32.3502C78.7499 31.1502 92.4899 26.6702 102.54 26.3902C110.97 26.1502 119.29 30.0202 119.29 30.0202L119.25 51.0802L1.68994 50.8702L1.73994 26.8102Z" fill="#006F3F"/>
</g>
<mask id="mask1_15102_3963" style="mask-type:luminance" maskUnits="userSpaceOnUse" x="6" y="8" width="113" height="49">
<path d="M6.03997 56.0501L118.94 55.8101C118.5 28.0701 93.4 8.39008 62.57 8.33008H62.47C31.51 8.33008 6.29997 28.1601 6.02997 56.0501H6.03997Z" fill="white"/>
</mask>
<g mask="url(#mask1_15102_3963)">
<path fill-rule="evenodd" clip-rule="evenodd" d="M1.66998 35.8802C1.66998 35.8802 34.05 35.2502 45.36 32.9302C55.09 30.9402 63.61 35.3502 68.52 35.3002C73.43 35.2602 76.02 32.4502 86.09 32.6002C97.96 32.7702 119.31 36.5102 119.31 36.5102L119.24 51.2002L1.69998 51.0002L1.66998 35.8802Z" fill="#FFEC00"/>
</g>
<mask id="mask2_15102_3963" style="mask-type:luminance" maskUnits="userSpaceOnUse" x="6" y="8" width="113" height="49">
<path d="M6.03997 56.0501L118.94 55.8101C118.5 28.0701 93.4 8.39008 62.57 8.33008H62.47C31.51 8.33008 6.29997 28.1601 6.02997 56.0501H6.03997Z" fill="white"/>
</mask>
<g mask="url(#mask2_15102_3963)">
<path fill-rule="evenodd" clip-rule="evenodd" d="M1.64996 43.6C1.64996 43.6 33.37 36.5 45.18 34.85C55.04 33.47 64.18 37.2 69.1 37.15C74 37.11 76.1 34.93 86.18 35.08C98.05 35.25 119.31 42.03 119.31 42.03L121.91 57.65L1.66996 57.83L1.64996 43.61V43.6Z" fill="#81B82E"/>
</g>
<path fill-rule="evenodd" clip-rule="evenodd" d="M60.07 84.96C57.52 84.29 54.97 83.65 54.51 83.56C47.1884 82.2012 39.7565 81.525 32.31 81.54H31.92C25.49 81.54 22.2 81.62 19.56 81.67H19.28C17.59 81.7 16.13 81.73 14.25 81.73H14.22C5.91997 81.72 0.12997 76.74 0.0999697 69.64L-3.034e-05 54.91C-0.0277421 53.1985 0.329979 51.5027 1.04663 49.9482C1.76329 48.3938 2.8205 47.0204 4.13997 45.93C5.91997 44.44 9.07997 42.69 14.08 42.69H14.9C16.4 42.69 17.68 42.71 19.13 42.73H19.42C21.26 42.76 24.04 42.81 28.72 42.82H31.77C39.322 42.8366 46.8588 42.1401 54.28 40.74C56.0135 40.3763 57.7315 39.9426 59.43 39.44L62.36 38.52L65.29 39.42C66.83 39.9 69.46 40.52 70.46 40.72C72.8 41.18 81.34 42.71 92.62 42.72H93.02C99.44 42.72 102.72 42.66 105.35 42.6H105.41C107.17 42.57 108.7 42.55 110.69 42.54H110.77C119.02 42.55 124.81 47.54 124.86 54.67L124.91 63.74L124.96 69.35C124.96 72.16 124.06 74.73 122.36 76.8C120.88 78.58 117.43 81.57 110.88 81.58H110.26C108.64 81.58 107.33 81.56 105.79 81.54H105.52C103.38 81.5 100.74 81.46 96.3 81.45H93.18C81.78 81.47 73.15 83.03 70.72 83.51L70.63 83.54C69.65 83.73 67.03 84.36 65.51 84.83L62.8 85.68L60.07 84.96Z" fill="#E52329"/>
<path fill-rule="evenodd" clip-rule="evenodd" d="M61.45 79.6201C61.41 79.6101 56.6 78.3501 55.6 78.1501C53.15 77.66 44.26 76.05 32.33 76.03H31.93C25.42 76.04 22.12 76.1001 19.46 76.1501H19.16C17.49 76.1901 16.06 76.21 14.26 76.21H14.21C11.52 76.21 9.19996 75.4801 7.64996 74.1501C6.9928 73.594 6.46914 72.8972 6.11775 72.1113C5.76635 71.3254 5.59622 70.4706 5.61996 69.6101L5.51996 54.87C5.51996 52.97 6.24996 51.34 7.66996 50.16C8.73996 49.26 10.74 48.1901 14.09 48.2001H14.89C16.38 48.2001 17.68 48.2201 19.06 48.2401H19.34C23.4827 48.3262 27.6264 48.3562 31.77 48.3301C39.6877 48.3476 47.5894 47.6177 55.37 46.1501C56.49 45.9201 59.29 45.2701 61.09 44.7001L62.37 44.3L63.66 44.7001C65.48 45.2501 68.32 45.9 69.38 46.12C71.85 46.62 80.82 48.22 92.6 48.23L93.03 48.2401C99.49 48.2401 102.8 48.17 105.46 48.12H105.52C107.26 48.08 108.77 48.05 110.7 48.05H110.76C113.43 48.05 115.76 48.7901 117.29 50.1101C117.953 50.6757 118.481 51.3823 118.835 52.1782C119.19 52.974 119.362 53.839 119.34 54.71L119.39 63.7701L119.45 69.4001C119.45 70.9001 118.99 72.2201 118.12 73.2901C117.26 74.3301 115.18 76.0601 110.86 76.0801H110.26L106.06 76.03L105.61 76.02C103.46 75.99 100.79 75.9501 96.32 75.9401H93.18C85.2794 75.9257 77.3949 76.6522 69.63 78.1101L69.5 78.14C67.5971 78.54 65.7121 79.0204 63.85 79.5801L62.67 79.9401L61.45 79.6201Z" fill="#FEFEFE"/>
<path fill-rule="evenodd" clip-rule="evenodd" d="M110.2 52.6002H114.97L114.94 70.4802H110.29V69.3902C109.55 70.2602 108.38 70.8302 106.7 70.8402C103.12 70.8402 101.58 67.0802 101.52 63.4102V63.1702C101.5 60.2502 102.94 56.5002 106.84 56.4802C108.3 56.4802 109.79 56.8502 110.16 57.6002H110.2V52.6002ZM80 56.4302H80.34L80.68 56.4502C82.89 56.5902 85.17 57.4602 85.28 60.5202V60.7602L85.27 70.4302L81.04 70.4202L81.03 69.3602L80.88 69.5102L80.73 69.6602C80.0106 70.3741 79.0433 70.7825 78.03 70.8002C75.23 70.8102 73.55 69.6802 73.53 66.8002C73.53 64.3702 75.18 63.3302 76.92 62.7002L77.32 62.5602L77.72 62.4302L79.05 62.0502L79.39 61.9502C80.27 61.6702 80.89 61.3602 80.87 60.8002C80.84 59.9002 80.09 59.7602 79.35 59.7602H79.23C77.93 59.7602 76.96 60.1302 75.8 60.7102L74.56 61.3602L74.86 57.9402C76.33 56.6602 78.07 56.4402 80 56.4402V56.4302ZM46.04 56.4002H46.29L46.8 56.4202C47.95 56.4702 49.2 56.6402 49.88 57.0702L50.02 57.1702V61.4502C49.35 60.8702 47.41 60.7502 46.87 60.8202C45.43 61.0502 44.27 61.8602 44.27 63.8902C44.27 65.5602 45.02 66.9002 46.77 66.9102C48.09 66.9102 49.43 66.6102 49.92 66.3502L50.01 66.3002L49.99 70.2702C49.57 70.4602 48.62 70.5702 47.69 70.6402L47.08 70.6902L46.78 70.7002L46.25 70.7202L45.65 70.7402C41.05 70.7402 39.57 67.3702 39.55 63.6002C39.53 59.3402 41.65 56.3902 46.05 56.4002H46.04ZM31.74 56.3802C31.94 56.3802 32.14 56.3802 32.36 56.4002L32.68 56.4402L33 56.4902L33.33 56.5502L33.66 56.6402C35.99 57.2702 38.44 59.1802 38.44 63.4502C38.44 68.9502 34.41 70.7102 31.77 70.7102L31.31 70.7002L31 70.6702C28.4 70.3702 25.03 68.4502 25.03 63.4802C25.04 58.4902 28.39 56.7202 30.98 56.4202L31.3 56.3902L31.75 56.3802H31.74ZM95.97 56.4202C98.19 56.4202 100.29 57.8102 100.31 60.9802L100.29 70.4502H95.5L95.53 62.9802C95.53 61.2702 95.09 60.6502 93.79 60.6502C92.68 60.6502 91.95 61.2502 91.96 62.9302L91.95 70.4302H87.16L87.19 56.8602H91.97V58.1002L92.07 57.9702C92.95 56.7302 94.12 56.4202 95.95 56.4202H95.97ZM67.21 52.5202L71.77 52.5302L71.74 70.4002H66.98L67 52.5302H67.2L67.21 52.5202ZM51.95 52.5002L56.65 52.5102V58.2002L56.76 58.0402C57.63 56.8002 58.79 56.4802 60.61 56.4802C62.84 56.4802 64.9 57.8702 64.92 61.0302L64.9 70.3902H60.2V63.0402C60.2 61.3302 59.76 60.7202 58.45 60.7202C57.35 60.7202 56.67 61.3502 56.68 63.0202L56.66 70.3802H51.92L51.95 52.5002ZM10.45 52.4302H15.23L15.22 58.6002H18.76L18.77 52.4402L23.56 52.4502L23.52 70.3202L18.75 70.3102V63.3802H15.22L15.21 70.3002H10.41L10.45 52.4302ZM81.44 64.0402C81.44 64.1702 81.28 64.2702 81.02 64.3502L80.77 64.4302L79.97 64.6402L79.43 64.8102L79.05 64.9402C78.51 65.1602 77.79 65.5402 77.78 66.4402C77.79 67.2402 78.62 67.6002 79.13 67.6002C79.6 67.6002 80 67.4902 80.33 67.2902L80.47 67.1902C80.98 66.8902 81.28 66.3402 81.39 65.5402L81.41 65.3402C81.45 64.9402 81.47 64.5202 81.44 64.0402ZM107.92 60.3402C107.02 60.3402 105.48 60.9602 105.48 63.6102C105.5 66.2302 107.04 66.8502 107.94 66.8502C108.84 66.8502 110.24 66.2302 110.24 63.5802C110.21 60.9402 108.82 60.3402 107.92 60.3402ZM31.72 60.3402C30.7 60.3402 29.14 60.9202 29.15 63.4402C29.15 65.9602 30.73 66.5402 31.75 66.5402C32.77 66.5402 34.35 65.9502 34.33 63.4402C34.31 60.9202 32.75 60.3402 31.73 60.3402H31.72Z" fill="#001689"/>
</g>
<defs>
<radialGradient id="paint0_radial_15102_3963" cx="0" cy="0" r="1" gradientUnits="userSpaceOnUse" gradientTransform="translate(1751.92 -5019.15) rotate(-90) scale(4819.74 2032.52)">
<stop stop-color="#F3FBFF"/>
<stop offset="0.5346" stop-color="#DDF1FB"/>
<stop offset="0.6683" stop-color="#C6E8F9"/>
<stop offset="1" stop-color="#80CFF3"/>
</radialGradient>
<clipPath id="clip0_15102_3963">
<rect width="125" height="86" fill="white"/>
</clipPath>
</defs>
</svg>
