<svg width="133" height="70" viewBox="0 0 133 70" fill="none" xmlns="http://www.w3.org/2000/svg">
<g clip-path="url(#clip0_15102_3932)">
<path d="M131.989 35.0518C131.989 44.3602 124.796 52.9596 112.86 59.2683C100.954 65.5615 84.4802 69.4812 66.3009 69.4812C48.122 69.4812 31.6486 65.5615 19.7421 59.2683C7.80625 52.9596 0.612793 44.3602 0.612793 35.0518C0.612793 25.7419 7.80633 17.1409 19.7421 10.8307C31.6486 4.53594 48.122 0.615234 66.3009 0.615234C84.4802 0.615234 100.954 4.53594 112.86 10.8307C124.796 17.1409 131.989 25.7419 131.989 35.0518Z" fill="#2E3191" stroke="white" stroke-width="0.949309"/>
<path fill-rule="evenodd" clip-rule="evenodd" d="M76.4769 11.856C74.3913 17.7723 56.5406 19.6703 55.8866 11.856C55.8631 18.6963 60.0017 24.4897 66.133 24.4897C72.2625 24.4897 76.4489 18.7345 76.4769 11.856Z" fill="white"/>
<path fill-rule="evenodd" clip-rule="evenodd" d="M71.8366 14.3814C74.706 12.3331 75.2157 10.7145 73.7634 10.4468C72.4879 10.212 69.7853 10.6144 65.6792 11.6385C69.6653 9.58385 73.7688 9.16145 75.3275 9.66487C76.768 10.1301 76.3333 12.456 71.8366 14.3814Z" fill="white"/>
<path fill-rule="evenodd" clip-rule="evenodd" d="M58.5851 13.9748C54.8868 11.7234 57.5938 9.18358 57.8608 8.98149C59.3717 7.84083 62.2998 7.84902 64.9744 6.89771C64.71 9.95738 65.31 13.6161 58.5851 13.9748Z" fill="#B7DB9B"/>
<path d="M24.2918 38.545L24.3992 38.5441L26.8482 27.8949C27.0179 27.1501 27.3786 26.5393 27.9279 26.0641C28.4682 25.5929 29.1615 25.3388 29.8756 25.3505C30.7243 25.3505 31.455 25.6253 32.0648 26.1806C32.6764 26.7351 33.0508 27.4434 33.1852 28.309L35.2229 41.2441C35.3239 41.8796 35.3762 42.3611 35.3762 42.6861C35.3762 44.0616 34.7403 44.7489 33.4729 44.7489C32.7278 44.7489 32.1883 44.4567 31.8484 43.8733C31.611 43.4963 31.4288 42.8682 31.2917 41.9943L29.6852 31.6327L29.6185 31.6336L27.2252 41.2168C26.9718 42.1973 26.6805 42.9009 26.3593 43.3279C25.8839 43.9297 25.2146 44.23 24.3469 44.23C23.4808 44.23 22.8098 43.9297 22.3352 43.3279C22.0114 42.9165 21.7237 42.2118 21.4693 41.2168L19.0482 31.6336L19.0084 31.6345L17.429 41.9979C17.2936 42.8873 17.1042 43.5227 16.867 43.9005C16.5098 44.4676 15.9568 44.7489 15.2072 44.7489C13.9308 44.7489 13.2939 44.0616 13.2939 42.6861C13.2939 42.4804 13.3526 41.9997 13.4716 41.2441L15.5085 28.309C15.6447 27.4434 16.0127 26.7351 16.6153 26.1806C17.2162 25.6253 17.9404 25.3505 18.7893 25.3505C19.5497 25.3505 20.1983 25.5825 20.7332 26.0514C21.2663 26.5184 21.6271 27.1347 21.8138 27.8967L24.2918 38.545ZM108.225 38.545L108.332 38.5441L110.783 27.8949C110.952 27.1501 111.312 26.5393 111.865 26.0641C112.417 25.5881 113.064 25.3505 113.812 25.3505C114.66 25.3505 115.389 25.6253 116.001 26.1806C116.613 26.7351 116.985 27.4434 117.12 28.309L119.159 41.2441C119.26 41.8796 119.311 42.3611 119.311 42.6861C119.311 44.0616 118.676 44.7489 117.408 44.7489C116.663 44.7489 116.124 44.4567 115.785 43.8733C115.547 43.4963 115.361 42.8682 115.226 41.9943L113.62 31.6327L113.556 31.6336L111.159 41.2168C110.905 42.1973 110.615 42.9009 110.294 43.3279C109.818 43.9297 109.147 44.23 108.281 44.23C107.417 44.23 106.746 43.9297 106.27 43.3279C105.948 42.9165 105.659 42.2118 105.404 41.2168L102.984 31.6336L102.944 31.6345L101.364 41.9979C101.227 42.8873 101.04 43.5227 100.802 43.9005C100.444 44.4676 99.8902 44.7489 99.1434 44.7489C97.8661 44.7489 97.2274 44.0616 97.2274 42.6861C97.2274 42.4804 97.286 41.9997 97.406 41.2441L99.4428 28.309C99.5781 27.4434 99.948 26.7351 100.55 26.1806C101.151 25.6253 101.875 25.3505 102.724 25.3505C103.485 25.3505 104.133 25.5825 104.669 26.0514C105.202 26.5184 105.561 27.1347 105.749 27.8967L108.225 38.545ZM41.19 37.448C41.19 38.3729 41.412 39.175 41.8567 39.8641C42.3879 40.6679 43.1123 41.0703 44.0323 41.0703C44.9534 41.0703 45.6814 40.6679 46.2126 39.8641C46.6537 39.175 46.8775 38.3729 46.8775 37.448C46.8775 36.5458 46.6447 35.7566 46.1847 35.0866C45.6543 34.3183 44.938 33.9295 44.0323 33.9295C43.1123 33.9295 42.3879 34.3183 41.8567 35.0866C41.412 35.7411 41.19 36.5295 41.19 37.448ZM37.2804 37.4999C37.2804 35.4407 37.9066 33.7084 39.164 32.31C40.4214 30.9099 42.0452 30.2108 44.0323 30.2108C46.0566 30.2108 47.683 30.9054 48.9161 32.2963C50.1482 33.6883 50.7644 35.4224 50.7644 37.4999C50.7644 39.5627 50.1564 41.2796 48.9404 42.6524C47.6757 44.0607 46.0395 44.7627 44.0323 44.7627C42.0452 44.7627 40.4088 44.0534 39.1278 42.6297C37.8966 41.2532 37.2804 39.5454 37.2804 37.4999ZM85.8345 37.448C85.8345 38.3729 86.0546 39.175 86.4984 39.8641C87.0297 40.6679 87.755 41.0703 88.675 41.0703C89.597 41.0703 90.3232 40.6679 90.8553 39.8641C91.2964 39.175 91.5174 38.3729 91.5174 37.448C91.5174 36.5458 91.2892 35.7566 90.8274 35.0866C90.296 34.3183 89.5789 33.9295 88.675 33.9295C87.755 33.9295 87.0297 34.3183 86.4984 35.0866C86.0546 35.7411 85.8345 36.5295 85.8345 37.448ZM81.9213 37.4999C81.9213 35.4407 82.5492 33.7084 83.8067 32.31C85.0632 30.9099 86.687 30.2108 88.675 30.2108C90.6984 30.2108 92.3256 30.9054 93.5579 32.2963C94.79 33.6883 95.4062 35.4224 95.4062 37.4999C95.4062 39.5627 94.7973 41.2796 93.5822 42.6524C92.3157 44.0607 90.6821 44.7627 88.675 44.7627C86.687 44.7627 85.0533 44.0534 83.7696 42.6297C82.5375 41.2532 81.9213 39.5454 81.9213 37.4999ZM72.9504 38.7043L72.3388 39.1732V41.6766C72.3388 43.7294 71.6605 44.7544 70.302 44.7544C68.9264 44.7544 68.239 43.7312 68.239 41.6847V33.2549C68.239 31.2084 68.9264 30.1862 70.302 30.1862C71.3376 30.1862 71.9745 30.7825 72.2117 31.9787C72.2974 32.341 72.3388 33.3451 72.3388 34.9909L75.8542 31.3223C76.5848 30.5648 77.2902 30.1862 77.9686 30.1862C78.443 30.1862 78.8517 30.3328 79.1926 30.6277C79.5309 30.9217 79.7005 31.3105 79.7005 31.7957C79.7005 32.4875 79.3514 33.1639 78.6569 33.822L75.8812 36.4439L79.7267 41.0402C80.2706 41.7001 80.5412 42.3838 80.5412 43.0921C80.5412 43.5956 80.3427 43.9989 79.9441 44.301C79.5604 44.5978 79.0897 44.7572 78.6064 44.7544C77.7917 44.7544 77.0765 44.3384 76.4666 43.5036L72.9504 38.7043ZM65.9902 42.84C65.9924 43.3003 65.8323 43.7464 65.5384 44.0984C65.2445 44.4505 64.8362 44.6856 64.3864 44.7617C64.1224 44.7608 63.8587 44.7468 63.5961 44.7199C63.3127 44.6447 63.0504 44.5042 62.8299 44.3093C62.6093 44.1146 62.4365 43.8709 62.3251 43.5974C62.295 43.5331 62.2715 43.4661 62.2547 43.3971L59.1166 34.1024L55.9828 43.3971C55.9669 43.4664 55.9433 43.5335 55.9124 43.5974C55.8013 43.8713 55.6284 44.1154 55.4074 44.3102C55.1865 44.5051 54.9236 44.6453 54.6396 44.7199C54.3774 44.747 54.114 44.7608 53.8503 44.7617C53.4007 44.6855 52.9925 44.4504 52.6989 44.0983C52.4054 43.7462 52.2456 43.3002 52.2482 42.84C52.2482 42.6442 52.2762 42.4494 52.3322 42.2738C52.3475 42.2073 52.371 42.1472 52.398 42.0844C53.5094 38.7889 55.5462 32.7615 55.5462 32.7615C55.8112 32.0188 56.2957 31.3759 56.9341 30.9199C57.5726 30.4637 58.3343 30.2163 59.1166 30.2108C59.4421 30.2108 59.7534 30.2518 60.0529 30.3337C60.6554 30.4907 61.2106 30.7939 61.6703 31.2171C62.1301 31.6402 62.4803 32.1704 62.6904 32.7615C62.6904 32.7615 64.7272 38.7889 65.8377 42.0844C65.8667 42.1472 65.8882 42.2073 65.9081 42.2738C65.9604 42.4494 65.9902 42.6442 65.9902 42.84Z" fill="white"/>
<path fill-rule="evenodd" clip-rule="evenodd" d="M69.5861 14.94C70.739 14.1225 70.7417 13.4616 70.3403 13.162C69.8839 12.9136 68.8664 12.9918 67.0586 13.0592C69.0739 12.5349 70.6542 12.2636 71.3749 12.6805C72.1507 13.1303 71.1567 14.2691 69.5861 14.94Z" fill="white"/>
<path d="M68.899 15.3856C66.0765 16.0364 59.5149 15.7579 57.4403 12.8302C57.1631 12.4461 56.9759 12.0035 56.8926 11.5359C56.8093 11.0682 56.8322 10.5876 56.9594 10.1301C54.8558 15.2217 63.4245 17.3983 68.899 15.3856Z" fill="url(#paint0_linear_15102_3932)"/>
<path d="M90.9515 57.7602C85.9235 58.1171 73.9324 61.7185 62.8425 63.2687C51.9241 64.7954 31.3654 65.9042 10.5767 53.6829C32.3658 63.8295 52.9949 54.1425 65.0355 53.2004C76.8344 52.2737 85.8062 55.4944 90.9515 57.7602Z" fill="#B7DB9B"/>
<path d="M65.0352 53.1991C53.2102 54.1259 33.1007 63.4842 11.7437 54.207C25.8491 61.8765 47.8295 62.1643 64.9892 58.0904C74.2597 55.891 83.9702 56.0403 90.9513 57.76C85.8059 55.4942 76.8341 52.2742 65.0352 53.1991Z" fill="#0DB14B"/>
<path fill-rule="evenodd" clip-rule="evenodd" d="M57.7541 13.1133C53.9448 7.36989 63.309 7.88514 64.9706 6.70898C64.9706 6.70898 64.8181 7.79684 63.3803 8.87924C62.4791 9.55745 58.2006 10.1364 57.7541 13.1133Z" fill="#0DB14B"/>
</g>
<defs>
<linearGradient id="paint0_linear_15102_3932" x1="56.5635" y1="13.1298" x2="67.8687" y2="13.1298" gradientUnits="userSpaceOnUse">
<stop stop-color="#CEE4AD"/>
<stop offset="1" stop-color="white"/>
</linearGradient>
<clipPath id="clip0_15102_3932">
<rect width="133" height="70" fill="white"/>
</clipPath>
</defs>
</svg>
